# xmcd
#
# Track frame offsets:
#	150
#	20926
#	35314
#	50057
#	69370
#	84156
#	99313
#	113123
#	129936
#	141644
#	155135
#	171233
#	189174
#	203652
#	217492
#	230109
#
# Disc length: 3260 seconds
#
# Revision: 0
# Processed by: cddbd v1.5.2PL0 Copyright (c) Steve Scherf et al.
# Submitted via: audiograbber 1.83.01
#
DISCID=eb0cba10
DTITLE=Bruce Kapusta - Bella Colonia CD 2 (jespillt)
DYEAR=2011
DGENRE=Karneval
TTITLE0=Dä Clown für Üch (Radio Edit)
TTITLE1=Bella Colonia
TTITLE2=Licht aus, Spot on
TTITLE3=Sach Lach ma un mach ma
TTITLE4=Die beste Zick em Johr#
TTITLE5=Dat Lääve is schön
TTITLE6=Clown-Mädchen
TTITLE7=Kleine Strossemusikant
TTITLE8=Keiner will heim
TTITLE9=Uns kölsche Siel
TTITLE10=Op einem Aug' do kriesche mir
TTITLE11=Laach ens
TTITLE12=Mer blieve in Kölle
TTITLE13=Hände hoch, wir feiern
TTITLE14=Schenk dem Clown ein Lächeln
TTITLE15=Dä Clown für Üch
EXTD=
EXTT0=
EXTT1=
EXTT2=
EXTT3=
EXTT4=
EXTT5=
EXTT6=
EXTT7=
EXTT8=
EXTT9=
EXTT10=
EXTT11=
EXTT12=
EXTT13=
EXTT14=
EXTT15=
PLAYORDER=
